<svg id="mermaid-1674157999646" width="100%" xmlns="http://www.w3.org/2000/svg" xmlns:xlink="http://www.w3.org/1999/xlink" height="350.375" style="max-width: 368.765625px;" viewBox="-20 -20 368.765625 350.375"><style>#mermaid-1674157999646{font-family:"trebuchet ms",verdana,arial,sans-serif;font-size:16px;fill:#000;}#mermaid-1674157999646 .error-icon{fill:#000;}#mermaid-1674157999646 .error-text{fill:#ffffff;stroke:#ffffff;}#mermaid-1674157999646 .edge-thickness-normal{stroke-width:2px;}#mermaid-1674157999646 .edge-thickness-thick{stroke-width:3.5px;}#mermaid-1674157999646 .edge-pattern-solid{stroke-dasharray:0;}#mermaid-1674157999646 .edge-pattern-dashed{stroke-dasharray:3;}#mermaid-1674157999646 .edge-pattern-dotted{stroke-dasharray:2;}#mermaid-1674157999646 .marker{fill:#000;stroke:#000;}#mermaid-1674157999646 .marker.cross{stroke:#000;}#mermaid-1674157999646 svg{font-family:"trebuchet ms",verdana,arial,sans-serif;font-size:16px;}#mermaid-1674157999646 g.classGroup text{fill:#000;fill:#000;stroke:none;font-family:"trebuchet ms",verdana,arial,sans-serif;font-size:10px;}#mermaid-1674157999646 g.classGroup text .title{font-weight:bolder;}#mermaid-1674157999646 .classTitle{font-weight:bolder;}#mermaid-1674157999646 .node rect,#mermaid-1674157999646 .node circle,#mermaid-1674157999646 .node ellipse,#mermaid-1674157999646 .node polygon,#mermaid-1674157999646 .node path{fill:#FFFFFF;stroke:#000;stroke-width:1px;}#mermaid-1674157999646 .divider{stroke:#000;stroke:1;}#mermaid-1674157999646 g.clickable{cursor:pointer;}#mermaid-1674157999646 g.classGroup rect{fill:#FFFFFF;stroke:#000;}#mermaid-1674157999646 g.classGroup line{stroke:#000;stroke-width:1;}#mermaid-1674157999646 .classLabel .box{stroke:none;stroke-width:0;fill:#FFFFFF;opacity:0.5;}#mermaid-1674157999646 .classLabel .label{fill:#000;font-size:10px;}#mermaid-1674157999646 .relation{stroke:#000;stroke-width:1;fill:none;}#mermaid-1674157999646 .dashed-line{stroke-dasharray:3;}#mermaid-1674157999646 #compositionStart,#mermaid-1674157999646 .composition{fill:#000 !important;stroke:#000 !important;stroke-width:1;}#mermaid-1674157999646 #compositionEnd,#mermaid-1674157999646 .composition{fill:#000 !important;stroke:#000 !important;stroke-width:1;}#mermaid-1674157999646 #dependencyStart,#mermaid-1674157999646 .dependency{fill:#000 !important;stroke:#000 !important;stroke-width:1;}#mermaid-1674157999646 #dependencyStart,#mermaid-1674157999646 .dependency{fill:#000 !important;stroke:#000 !important;stroke-width:1;}#mermaid-1674157999646 #extensionStart,#mermaid-1674157999646 .extension{fill:#000 !important;stroke:#000 !important;stroke-width:1;}#mermaid-1674157999646 #extensionEnd,#mermaid-1674157999646 .extension{fill:#000 !important;stroke:#000 !important;stroke-width:1;}#mermaid-1674157999646 #aggregationStart,#mermaid-1674157999646 .aggregation{fill:#FFFFFF !important;stroke:#000 !important;stroke-width:1;}#mermaid-1674157999646 #aggregationEnd,#mermaid-1674157999646 .aggregation{fill:#FFFFFF !important;stroke:#000 !important;stroke-width:1;}#mermaid-1674157999646 .edgeTerminals{font-size:11px;}#mermaid-1674157999646:root{--mermaid-font-family:"trebuchet ms",verdana,arial,sans-serif;}</style><g></g><defs><marker id="extensionStart" class="extension" refX="0" refY="7" markerWidth="190" markerHeight="240" orient="auto"><path d="M 1,7 L18,13 V 1 Z"></path></marker></defs><defs><marker id="extensionEnd" refX="19" refY="7" markerWidth="20" markerHeight="28" orient="auto"><path d="M 1,1 V 13 L18,7 Z"></path></marker></defs><defs><marker id="compositionStart" class="extension" refX="0" refY="7" markerWidth="190" markerHeight="240" orient="auto"><path d="M 18,7 L9,13 L1,7 L9,1 Z"></path></marker></defs><defs><marker id="compositionEnd" refX="19" refY="7" markerWidth="20" markerHeight="28" orient="auto"><path d="M 18,7 L9,13 L1,7 L9,1 Z"></path></marker></defs><defs><marker id="aggregationStart" class="extension" refX="0" refY="7" markerWidth="190" markerHeight="240" orient="auto"><path d="M 18,7 L9,13 L1,7 L9,1 Z"></path></marker></defs><defs><marker id="aggregationEnd" refX="19" refY="7" markerWidth="20" markerHeight="28" orient="auto"><path d="M 18,7 L9,13 L1,7 L9,1 Z"></path></marker></defs><defs><marker id="dependencyStart" class="extension" refX="0" refY="7" markerWidth="190" markerHeight="240" orient="auto"><path d="M 5,7 L9,13 L1,7 L9,1 Z"></path></marker></defs><defs><marker id="dependencyEnd" refX="19" refY="7" markerWidth="20" markerHeight="28" orient="auto"><path d="M 18,7 L9,13 L14,7 L9,1 Z"></path></marker></defs><g id="classid-PaymentCryptoInstruction-0" class="classGroup" transform="translate(87.19140625,239.25 )"><rect x="0" y="0" width="139.609375" height="71.125" class=" "></rect><text y="15" x="0"><tspan class="title" x="8.4609375">PaymentCryptoInstruction</tspan></text><line x1="0" y1="21.0625" y2="21.0625" x2="139.609375"></line><text x="5" y="31.0625" fill="white" class="classText"><tspan x="5">+Bytes account</tspan><tspan x="5" dy="10">+int amount</tspan><tspan x="5" dy="10">+Bytes encrypted_preimage</tspan><tspan x="5" dy="10">+Bytes payment_hash</tspan></text><line x1="0" y1="67.125" y2="67.125" x2="139.609375"></line><text x="5" y="82.125" fill="white" class="classText"></text></g><g id="classid-SignableObject-1" class="classGroup" transform="translate(0,0 )"><rect x="0" y="0" width="124.609375" height="68.1875" class=" "></rect><text y="15" x="0"><tspan class="title" x="27.203125">SignableObject</tspan></text><line x1="0" y1="21.0625" y2="21.0625" x2="124.609375"></line><text x="5" y="31.0625" fill="white" class="classText"><tspan x="5">Bytes signature</tspan></text><line x1="0" y1="37.125" y2="37.125" x2="124.609375"></line><text x="5" y="52.125" fill="white" class="classText"><tspan x="5">+sign(Bytes private_key)</tspan><tspan x="5" dy="10">Bytes public_key</tspan></text></g><g id="classid-ReplyPayload-2" class="classGroup" transform="translate(2.58203125,118.1875 )"><rect x="0" y="0" width="308.828125" height="71.0625" class=" "></rect><text y="15" x="0"><tspan class="title" x="123.2890625">ReplyPayload</tspan></text><line x1="0" y1="21.0625" y2="21.0625" x2="308.828125"></line><text x="5" y="31.0625" fill="white" class="classText"><tspan x="5">+RequestPayload signed_request_payload</tspan><tspan x="5" dy="10">+Bytes encrypted_reply_message</tspan><tspan x="5" dy="10">+List[PaymentCryptoInstruction] payment_crypto_instruction_list</tspan><tspan x="5" dy="10">+Invoice invoice</tspan></text><line x1="0" y1="67.0625" y2="67.0625" x2="308.828125"></line><text x="5" y="82.0625" fill="white" class="classText"></text></g><g id="classid-ReplyFrame-3" class="classGroup" transform="translate(174.609375,3.53125 )"><rect x="0" y="0" width="154.15625" height="61.125" class=" "></rect><text y="15" x="0"><tspan class="title" x="49.203125">ReplyFrame</tspan></text><line x1="0" y1="21.0625" y2="21.0625" x2="154.15625"></line><text x="5" y="31.0625" fill="white" class="classText"><tspan x="5">+Certificate replier_certificate</tspan><tspan x="5" dy="10">+OnionRoute forward_onion</tspan><tspan x="5" dy="10">+List[Invoice] invoices</tspan></text><line x1="0" y1="57.125" y2="57.125" x2="154.15625"></line><text x="5" y="72.125" fill="white" class="classText"></text></g><path d="M62.3046875,68.1875L62.3046875,72.35416666666667C62.3046875,76.52083333333333,62.3046875,84.85416666666667,68.82276743460677,93.1875C75.34084736921356,101.52083333333333,88.37700723842711,109.85416666666667,94.8950871730339,114.02083333333333L101.41316710764067,118.1875" id="edge0" class="relation" marker-start="url(#extensionStart)"></path><path d="M251.6875,64.65625L251.6875,69.41145833333333C251.6875,74.16666666666667,251.6875,83.67708333333333,245.1694200653932,92.59895833333333C238.65134013078645,101.52083333333333,225.61518026157287,109.85416666666667,219.0971003269661,114.02083333333333L212.57902039235933,118.1875" id="edge1" class="relation" marker-start="url(#aggregationStart)"></path><g class="classLabel"><rect class="box" x="193.359375" y="86.5" width="101.59375" height="16.0625"></rect><text class="label" x="244.15289272281058" y="98.00397928581032" fill="red" text-anchor="middle">signed_reply_payload</text></g><path d="M156.99609375,189.25L156.99609375,193.41666666666666C156.99609375,197.58333333333334,156.99609375,205.91666666666666,156.99609375,214.25C156.99609375,222.58333333333334,156.99609375,230.91666666666666,156.99609375,235.08333333333334L156.99609375,239.25" id="edge2" class="relation" marker-start="url(#aggregationStart)"></path><g class="classLabel"><rect class="box" x="81.765625" y="202.75" width="150.453125" height="16.0625"></rect><text class="label" x="156.99609375" y="214.25" fill="red" text-anchor="middle">payment_crypto_instruction_list</text></g></svg>