<svg id="mermaid-1674649986578" width="100%" xmlns="http://www.w3.org/2000/svg" xmlns:xlink="http://www.w3.org/1999/xlink" height="435.5625" style="max-width: 397.25px;" viewBox="-20 -20 397.25 435.5625"><style>#mermaid-1674649986578{font-family:"trebuchet ms",verdana,arial,sans-serif;font-size:16px;fill:#000;}#mermaid-1674649986578 .error-icon{fill:#000;}#mermaid-1674649986578 .error-text{fill:#ffffff;stroke:#ffffff;}#mermaid-1674649986578 .edge-thickness-normal{stroke-width:2px;}#mermaid-1674649986578 .edge-thickness-thick{stroke-width:3.5px;}#mermaid-1674649986578 .edge-pattern-solid{stroke-dasharray:0;}#mermaid-1674649986578 .edge-pattern-dashed{stroke-dasharray:3;}#mermaid-1674649986578 .edge-pattern-dotted{stroke-dasharray:2;}#mermaid-1674649986578 .marker{fill:#000;stroke:#000;}#mermaid-1674649986578 .marker.cross{stroke:#000;}#mermaid-1674649986578 svg{font-family:"trebuchet ms",verdana,arial,sans-serif;font-size:16px;}#mermaid-1674649986578 g.classGroup text{fill:#000;fill:#000;stroke:none;font-family:"trebuchet ms",verdana,arial,sans-serif;font-size:10px;}#mermaid-1674649986578 g.classGroup text .title{font-weight:bolder;}#mermaid-1674649986578 .classTitle{font-weight:bolder;}#mermaid-1674649986578 .node rect,#mermaid-1674649986578 .node circle,#mermaid-1674649986578 .node ellipse,#mermaid-1674649986578 .node polygon,#mermaid-1674649986578 .node path{fill:#FFFFFF;stroke:#000;stroke-width:1px;}#mermaid-1674649986578 .divider{stroke:#000;stroke:1;}#mermaid-1674649986578 g.clickable{cursor:pointer;}#mermaid-1674649986578 g.classGroup rect{fill:#FFFFFF;stroke:#000;}#mermaid-1674649986578 g.classGroup line{stroke:#000;stroke-width:1;}#mermaid-1674649986578 .classLabel .box{stroke:none;stroke-width:0;fill:#FFFFFF;opacity:0.5;}#mermaid-1674649986578 .classLabel .label{fill:#000;font-size:10px;}#mermaid-1674649986578 .relation{stroke:#000;stroke-width:1;fill:none;}#mermaid-1674649986578 .dashed-line{stroke-dasharray:3;}#mermaid-1674649986578 #compositionStart,#mermaid-1674649986578 .composition{fill:#000 !important;stroke:#000 !important;stroke-width:1;}#mermaid-1674649986578 #compositionEnd,#mermaid-1674649986578 .composition{fill:#000 !important;stroke:#000 !important;stroke-width:1;}#mermaid-1674649986578 #dependencyStart,#mermaid-1674649986578 .dependency{fill:#000 !important;stroke:#000 !important;stroke-width:1;}#mermaid-1674649986578 #dependencyStart,#mermaid-1674649986578 .dependency{fill:#000 !important;stroke:#000 !important;stroke-width:1;}#mermaid-1674649986578 #extensionStart,#mermaid-1674649986578 .extension{fill:#000 !important;stroke:#000 !important;stroke-width:1;}#mermaid-1674649986578 #extensionEnd,#mermaid-1674649986578 .extension{fill:#000 !important;stroke:#000 !important;stroke-width:1;}#mermaid-1674649986578 #aggregationStart,#mermaid-1674649986578 .aggregation{fill:#FFFFFF !important;stroke:#000 !important;stroke-width:1;}#mermaid-1674649986578 #aggregationEnd,#mermaid-1674649986578 .aggregation{fill:#FFFFFF !important;stroke:#000 !important;stroke-width:1;}#mermaid-1674649986578 .edgeTerminals{font-size:11px;}#mermaid-1674649986578:root{--mermaid-font-family:"trebuchet ms",verdana,arial,sans-serif;}</style><g></g><defs><marker id="extensionStart" class="extension" refX="0" refY="7" markerWidth="190" markerHeight="240" orient="auto"><path d="M 1,7 L18,13 V 1 Z"></path></marker></defs><defs><marker id="extensionEnd" refX="19" refY="7" markerWidth="20" markerHeight="28" orient="auto"><path d="M 1,1 V 13 L18,7 Z"></path></marker></defs><defs><marker id="compositionStart" class="extension" refX="0" refY="7" markerWidth="190" markerHeight="240" orient="auto"><path d="M 18,7 L9,13 L1,7 L9,1 Z"></path></marker></defs><defs><marker id="compositionEnd" refX="19" refY="7" markerWidth="20" markerHeight="28" orient="auto"><path d="M 18,7 L9,13 L1,7 L9,1 Z"></path></marker></defs><defs><marker id="aggregationStart" class="extension" refX="0" refY="7" markerWidth="190" markerHeight="240" orient="auto"><path d="M 18,7 L9,13 L1,7 L9,1 Z"></path></marker></defs><defs><marker id="aggregationEnd" refX="19" refY="7" markerWidth="20" markerHeight="28" orient="auto"><path d="M 18,7 L9,13 L1,7 L9,1 Z"></path></marker></defs><defs><marker id="dependencyStart" class="extension" refX="0" refY="7" markerWidth="190" markerHeight="240" orient="auto"><path d="M 5,7 L9,13 L1,7 L9,1 Z"></path></marker></defs><defs><marker id="dependencyEnd" refX="19" refY="7" markerWidth="20" markerHeight="28" orient="auto"><path d="M 18,7 L9,13 L14,7 L9,1 Z"></path></marker></defs><g id="classid-SignableObject-0" class="classGroup" transform="translate(28.484375,0 )"><rect x="0" y="0" width="124.609375" height="68.1875" class=" "></rect><text y="15" x="0"><tspan class="title" x="27.203125">SignableObject</tspan></text><line x1="0" y1="21.0625" y2="21.0625" x2="124.609375"></line><text x="5" y="31.0625" fill="white" class="classText"><tspan x="5">Bytes signature</tspan></text><line x1="0" y1="37.125" y2="37.125" x2="124.609375"></line><text x="5" y="52.125" fill="white" class="classText"><tspan x="5">+sign(Bytes private_key)</tspan><tspan x="5" dy="10">Bytes public_key</tspan></text></g><g id="classid-Invoice-1" class="classGroup" transform="translate(66.109375,229.3125 )"><rect x="0" y="0" width="69.359375" height="58.09375" class=" "></rect><text y="15" x="0"><tspan class="title" x="17.9453125">Invoice</tspan></text><line x1="0" y1="21" y2="21" x2="69.359375"></line><text x="5" y="31" fill="white" class="classText"><tspan x="5">+int amount</tspan></text><line x1="0" y1="37" y2="37" x2="69.359375"></line><text x="5" y="52" fill="white" class="classText"><tspan x="5">+pay()</tspan></text></g><g id="classid-HODLInvoice-2" class="classGroup" transform="translate(124.33203125,337.40625 )"><rect x="0" y="0" width="122.296875" height="58.15625" class=" "></rect><text y="15" x="0"><tspan class="title" x="31.5">HODLInvoice</tspan></text><line x1="0" y1="21" y2="21" x2="122.296875"></line><text x="5" y="31" fill="white" class="classText"><tspan x="5">+Bytes payment_hash</tspan></text><line x1="0" y1="37.0625" y2="37.0625" x2="122.296875"></line><text x="5" y="52.0625" fill="white" class="classText"><tspan x="5">+settle(Bytes preimage)</tspan></text></g><g id="classid-ReplyPayload-3" class="classGroup" transform="translate(0,118.1875 )"><rect x="0" y="0" width="201.578125" height="61.125" class=" "></rect><text y="15" x="0"><tspan class="title" x="69.6640625">ReplyPayload</tspan></text><line x1="0" y1="21.0625" y2="21.0625" x2="201.578125"></line><text x="5" y="31.0625" fill="white" class="classText"><tspan x="5">+RequestPayload signed_request_payload</tspan><tspan x="5" dy="10">+Bytes encrypted_reply_message</tspan><tspan x="5" dy="10">+Bytes network_payment_hash</tspan></text><line x1="0" y1="57.125" y2="57.125" x2="201.578125"></line><text x="5" y="72.125" fill="white" class="classText"></text></g><g id="classid-ReplyFrame-4" class="classGroup" transform="translate(203.09375,8.5625 )"><rect x="0" y="0" width="154.15625" height="51.0625" class=" "></rect><text y="15" x="0"><tspan class="title" x="49.203125">ReplyFrame</tspan></text><line x1="0" y1="21.0625" y2="21.0625" x2="154.15625"></line><text x="5" y="31.0625" fill="white" class="classText"><tspan x="5">+Certificate replier_certificate</tspan><tspan x="5" dy="10">+OnionRoute forward_onion</tspan></text><line x1="0" y1="47.0625" y2="47.0625" x2="154.15625"></line><text x="5" y="62.0625" fill="white" class="classText"></text></g><path d="M90.7890625,68.1875L90.7890625,72.35416666666667C90.7890625,76.52083333333333,90.7890625,84.85416666666667,91.53896876171729,93.1875C92.28887502343457,101.52083333333333,93.78868754686914,109.85416666666667,94.53859380858643,114.02083333333333L95.28850007030371,118.1875" id="edge0" class="relation" marker-start="url(#extensionStart)"></path><path d="M100.7890625,287.40625L100.7890625,291.5729166666667C100.7890625,295.7395833333333,100.7890625,304.0729166666667,107.3144525606761,312.40625C113.8398426213522,320.7395833333333,126.89062274270442,329.0729166666667,133.41601280338054,333.2395833333333L139.94140286405664,337.40625" id="edge1" class="relation" marker-start="url(#extensionStart)"></path><path d="M243.58124628172925,59.625L235.56445002644105,65.21875C227.54765377115282,70.8125,211.51406126057643,82,196.39629715751917,91.76041666666667C181.27853305446195,101.52083333333333,167.0765973589239,109.85416666666667,159.97562951115486,114.02083333333333L152.87466166338584,118.1875" id="edge2" class="relation" marker-start="url(#aggregationStart)"></path><g class="classLabel"><rect class="box" x="148.46875" y="79.03125" width="101.609375" height="16.0625"></rect><text class="label" x="199.27491290127804" y="90.5399121986747" fill="red" text-anchor="middle">signed_reply_payload</text></g><path d="M100.7890625,179.3125L100.7890625,183.47916666666666C100.7890625,187.64583333333334,100.7890625,195.97916666666666,100.7890625,204.3125C100.7890625,212.64583333333334,100.7890625,220.97916666666666,100.7890625,225.14583333333334L100.7890625,229.3125" id="edge3" class="relation" marker-start="url(#aggregationStart)"></path><g class="classLabel"><rect class="box" x="68.34375" y="192.8125" width="64.890625" height="16.0625"></rect><text class="label" x="100.7890625" y="204.3125" fill="red" text-anchor="middle">reply_invoice</text></g><path d="M284.4923403622422,59.625L285.43892946853515,65.21875C286.38551857482815,70.8125,288.27869678741405,82,289.22528589370705,96.85416666666667C290.171875,111.70833333333333,290.171875,130.22916666666666,290.171875,148.75C290.171875,167.27083333333334,290.171875,185.79166666666666,290.171875,204.05989583333334C290.171875,222.328125,290.171875,240.34375,290.171875,258.359375C290.171875,276.375,290.171875,294.390625,282.10550449051334,307.5651041666667C274.0391339810267,320.7395833333333,257.90639296205336,329.0729166666667,249.8400224525667,333.2395833333333L241.77365194308004,337.40625" id="edge4" class="relation" marker-start="url(#aggregationStart)"></path><g class="classLabel"><rect class="box" x="250.8125" y="201.5" width="78.71875" height="16.015625"></rect><text class="label" x="290.171875" y="213.0139128806398" fill="red" text-anchor="middle">network_invoice</text></g></svg>