<svg xmlns="http://www.w3.org/2000/svg" version="1.1" xmlns:xlink="http://www.w3.org/1999/xlink" xmlns:svgjs="http://svgjs.dev/svgjs" width="1500" height="420" viewBox="0 0 1500 420"><g transform="matrix(1,0,0,1,-0.9090909090909918,-0.5636750958687742)"><svg viewBox="0 0 396 111" data-background-color="#ffffff" preserveAspectRatio="xMidYMid meet" height="420" width="1500" xmlns="http://www.w3.org/2000/svg" xmlns:xlink="http://www.w3.org/1999/xlink"><g id="tight-bounds" transform="matrix(1,0,0,1,0.2400000000000091,0.14897127533674848)"><svg viewBox="0 0 395.52 110.7020574493265" height="110.7020574493265" width="395.52"><g><svg viewBox="0 0 702.3840435542616 196.590207172922" height="110.7020574493265" width="395.52"><g><rect width="10.01229433993615" height="196.590207172922" x="421.7301946071627" y="0" fill="#50a060" opacity="1" stroke-width="0" stroke="transparent" fill-opacity="1" class="rect-qz-0" data-fill-palette-color="primary" rx="1%" id="qz-0" data-palette-color="#50a060"></rect></g><g transform="matrix(1,0,0,1,0,16.38251726441017)"><svg viewBox="0 0 395.52 163.82517264410166" height="163.82517264410166" width="395.52"><g id="textblocktransform"><svg viewBox="0 0 395.52 163.82517264410166" height="163.82517264410166" width="395.52" id="textblock"><g><svg viewBox="0 0 395.52 111.02439302242792" height="111.02439302242792" width="395.52"><g transform="matrix(1,0,0,1,0,0)"><svg width="395.52" viewBox="1.46 -38.01 137.15 38.5" height="111.02439302242792" data-palette-color="#50a060"><path d="M10.16 0L5.64 0 5.64-22.92 1.46-22.92 1.46-26.42 5.64-26.42 5.64-29.13Q5.64-33.37 7.91-35.69 10.18-38.01 14.33-38.01L14.33-38.01Q15.89-38.01 17.43-37.6L17.43-37.6 17.19-33.94Q16.04-34.16 14.75-34.16L14.75-34.16Q12.55-34.16 11.35-32.87 10.16-31.59 10.16-29.2L10.16-29.2 10.16-26.42 15.8-26.42 15.8-22.92 10.16-22.92 10.16 0ZM41.82 0L37.08 0Q36.69-0.78 36.45-2.78L36.45-2.78Q33.3 0.49 28.93 0.49L28.93 0.49Q25.02 0.49 22.52-1.72 20.02-3.93 20.02-7.32L20.02-7.32Q20.02-11.45 23.15-13.73 26.29-16.02 31.98-16.02L31.98-16.02 36.37-16.02 36.37-18.09Q36.37-20.46 34.96-21.86 33.54-23.27 30.78-23.27L30.78-23.27Q28.37-23.27 26.73-22.05 25.1-20.83 25.1-19.09L25.1-19.09 20.55-19.09Q20.55-21.07 21.96-22.91 23.36-24.76 25.77-25.83 28.17-26.9 31.05-26.9L31.05-26.9Q35.62-26.9 38.21-24.62 40.79-22.34 40.89-18.33L40.89-18.33 40.89-6.18Q40.89-2.54 41.82-0.39L41.82-0.39 41.82 0ZM29.59-3.44L29.59-3.44Q31.71-3.44 33.62-4.54 35.52-5.64 36.37-7.4L36.37-7.4 36.37-12.82 32.83-12.82Q24.53-12.82 24.53-7.96L24.53-7.96Q24.53-5.83 25.95-4.64 27.37-3.44 29.59-3.44ZM52.88-26.42L52.88 0 48.36 0 48.36-26.42 52.88-26.42ZM47.99-33.42L47.99-33.42Q47.99-34.52 48.66-35.28 49.34-36.04 50.65-36.04 51.97-36.04 52.66-35.28 53.34-34.52 53.34-33.42 53.34-32.32 52.66-31.59 51.97-30.86 50.65-30.86 49.34-30.86 48.66-31.59 47.99-32.32 47.99-33.42ZM72.87-26.56L72.87-22.36Q71.84-22.53 70.65-22.53L70.65-22.53Q66.2-22.53 64.62-18.75L64.62-18.75 64.62 0 60.1 0 60.1-26.42 64.49-26.42 64.57-23.36Q66.79-26.9 70.87-26.9L70.87-26.9Q72.18-26.9 72.87-26.56L72.87-26.56ZM81.92-26.42L81.92 0 77.41 0 77.41-26.42 81.92-26.42ZM77.04-33.42L77.04-33.42Q77.04-34.52 77.71-35.28 78.38-36.04 79.7-36.04 81.02-36.04 81.7-35.28 82.39-34.52 82.39-33.42 82.39-32.32 81.7-31.59 81.02-30.86 79.7-30.86 78.38-30.86 77.71-31.59 77.04-32.32 77.04-33.42ZM88.05-13.09L88.05-13.43Q88.05-19.51 90.93-23.21 93.81-26.9 98.47-26.9L98.47-26.9Q103.11-26.9 105.82-23.73L105.82-23.73 105.82-37.5 110.34-37.5 110.34 0 106.19 0 105.97-2.83Q103.26 0.49 98.43 0.49L98.43 0.49Q93.84 0.49 90.94-3.27 88.05-7.03 88.05-13.09L88.05-13.09ZM92.57-12.92L92.57-12.92Q92.57-8.42 94.42-5.88 96.28-3.34 99.55-3.34L99.55-3.34Q103.84-3.34 105.82-7.2L105.82-7.2 105.82-19.34Q103.8-23.07 99.6-23.07L99.6-23.07Q96.28-23.07 94.42-20.51 92.57-17.94 92.57-12.92ZM128.31 0.49L128.31 0.49Q122.93 0.49 119.57-3.04 116.2-6.57 116.2-12.48L116.2-12.48 116.2-13.31Q116.2-17.24 117.7-20.32 119.2-23.41 121.9-25.16 124.59-26.9 127.74-26.9L127.74-26.9Q132.9-26.9 135.75-23.51 138.61-20.12 138.61-13.79L138.61-13.79 138.61-11.91 120.71-11.91Q120.81-8.01 123-5.6 125.18-3.2 128.55-3.2L128.55-3.2Q130.94-3.2 132.6-4.17 134.26-5.15 135.51-6.76L135.51-6.76 138.27-4.61Q134.95 0.49 128.31 0.49ZM127.74-23.19L127.74-23.19Q125.01-23.19 123.15-21.2 121.3-19.21 120.86-15.63L120.86-15.63 134.09-15.63 134.09-15.97Q133.9-19.41 132.24-21.3 130.58-23.19 127.74-23.19Z" opacity="1" transform="matrix(1,0,0,1,0,0)" fill="#50a060" class="wordmark-text-0" data-fill-palette-color="primary" id="text-0"></path></svg></g></svg></g><g transform="matrix(1,0,0,1,163.310208,137.2345876295906)"><svg viewBox="0 0 232.209792 26.59058501451104" height="26.59058501451104" width="232.209792"><g transform="matrix(1,0,0,1,0,0)"><svg width="232.209792" viewBox="3.85 -35.9 316.96999999999997 36.3" height="26.59058501451104" data-palette-color="#50a060"><path d="M20.6-18.2L20.6-14.65 7.9-14.65 7.9 0 3.85 0 3.85-33.7 22.35-33.7 22.35-30.15 7.9-30.15 7.9-18.2 20.6-18.2ZM35.85-3.05L35.85-3.05Q38.55-3.05 40.15-4.58 41.75-6.1 41.75-8.45L41.75-8.45 41.75-11.7 37.35-11.7Q34.15-11.7 32.55-10.45 30.95-9.2 30.95-7.3 30.95-5.4 32.2-4.23 33.45-3.05 35.85-3.05ZM41.8 0L41.8-3Q39.85 0.25 34.7 0.25L34.7 0.25Q31.15 0.25 28.97-1.85 26.8-3.95 26.8-7.15L26.8-7.15Q26.8-10.8 29.57-12.83 32.35-14.85 37.15-14.85L37.15-14.85 41.75-14.85 41.75-16.15Q41.75-19.15 40.4-20.68 39.05-22.2 35.85-22.2L35.85-22.2Q31.8-22.2 28.65-20.05L28.65-20.05 28.65-24Q31.5-25.75 36.15-25.75L36.15-25.75Q45.7-25.75 45.7-16.05L45.7-16.05 45.7 0 41.8 0ZM56.84-25.35L56.84 0 52.9 0 52.9-25.35 56.84-25.35ZM56.7-35.15Q57.45-34.4 57.45-33.3 57.45-32.2 56.7-31.48 55.95-30.75 54.84-30.75 53.75-30.75 53.02-31.48 52.3-32.2 52.3-33.3 52.3-34.4 53.02-35.15 53.75-35.9 54.84-35.9 55.95-35.9 56.7-35.15ZM68.24-13.85L68.24 0 64.29 0 64.34-25.35 68.24-25.35 68.24-20.9Q70.24-25.6 75.14-25.6L75.14-25.6Q76.04-25.6 76.54-25.5L76.54-25.5 76.54-21.6Q75.49-21.95 74.39-21.95L74.39-21.95Q71.74-21.95 69.99-19.5 68.24-17.05 68.24-13.85L68.24-13.85ZM125.84-17.4L125.84 0 121.89 0 121.89-16.4Q121.89-22.15 117.04-22.15L117.04-22.15Q114.64-22.15 112.74-19.98 110.84-17.8 110.84-13.85L110.84-13.85 110.84 0 106.89 0 106.89-16.4Q106.89-22.15 102.04-22.15L102.04-22.15Q99.64-22.15 97.74-19.98 95.84-17.8 95.84-13.85L95.84-13.85 95.84 0 91.94 0 91.94-25.35 95.84-25.35 95.84-21.25Q97.94-25.7 102.99-25.7L102.99-25.7Q108.84-25.7 110.39-20.75L110.39-20.75Q111.49-23.15 113.46-24.43 115.44-25.7 117.89-25.7L117.89-25.7Q121.84-25.7 123.84-23.45 125.84-21.2 125.84-17.4L125.84-17.4ZM140.59-3.05L140.59-3.05Q143.28-3.05 144.88-4.58 146.49-6.1 146.49-8.45L146.49-8.45 146.49-11.7 142.09-11.7Q138.88-11.7 137.28-10.45 135.69-9.2 135.69-7.3 135.69-5.4 136.94-4.23 138.19-3.05 140.59-3.05ZM146.53 0L146.53-3Q144.59 0.25 139.44 0.25L139.44 0.25Q135.88 0.25 133.71-1.85 131.53-3.95 131.53-7.15L131.53-7.15Q131.53-10.8 134.31-12.83 137.09-14.85 141.88-14.85L141.88-14.85 146.49-14.85 146.49-16.15Q146.49-19.15 145.13-20.68 143.78-22.2 140.59-22.2L140.59-22.2Q136.53-22.2 133.38-20.05L133.38-20.05 133.38-24Q136.24-25.75 140.88-25.75L140.88-25.75Q150.44-25.75 150.44-16.05L150.44-16.05 150.44 0 146.53 0ZM160.03-12.4L160.03-12.4Q160.03-8.3 162.03-5.75 164.03-3.2 167.08-3.2L167.08-3.2Q170.18-3.2 172.36-5.5 174.53-7.8 174.53-12.85L174.53-12.85Q174.53-17.65 172.28-19.9 170.03-22.15 167.33-22.15L167.33-22.15Q164.18-22.15 162.11-19.63 160.03-17.1 160.03-12.4ZM178.48-35.35L178.48 0 174.53 0 174.53-3.75Q171.83 0.4 166.73 0.4L166.73 0.4Q161.68 0.4 158.81-3.35 155.93-7.1 155.93-12.45L155.93-12.45Q155.93-18.4 158.98-22.08 162.03-25.75 166.83-25.75L166.83-25.75Q171.78-25.75 174.53-21.5L174.53-21.5 174.53-35.35 178.48-35.35ZM204.28-5L204.28-1.3Q201.33 0.25 197.08 0.25L197.08 0.25Q191.33 0.25 187.81-3.28 184.28-6.8 184.28-12.6L184.28-12.6Q184.28-18.65 187.43-22.15 190.58-25.65 195.53-25.65L195.53-25.65Q200.28-25.65 203.08-22.6 205.88-19.55 205.88-13.95L205.88-13.95Q205.88-12.35 205.63-11L205.63-11 188.33-11Q188.78-7.25 191.18-5.25 193.58-3.25 197.48-3.25L197.48-3.25Q201.73-3.25 204.28-5L204.28-5ZM195.53-22.2L195.53-22.2Q192.68-22.2 190.68-20.15 188.68-18.1 188.33-14.3L188.33-14.3 201.93-14.3 201.93-15.3Q201.93-18.45 200.23-20.33 198.53-22.2 195.53-22.2ZM227.08-13.85L227.08 0 223.13 0 223.18-25.35 227.08-25.35 227.08-20.9Q229.08-25.6 233.97-25.6L233.97-25.6Q234.88-25.6 235.38-25.5L235.38-25.5 235.38-21.6Q234.33-21.95 233.22-21.95L233.22-21.95Q230.58-21.95 228.83-19.5 227.08-17.05 227.08-13.85L227.08-13.85ZM243.62-25.35L243.62 0 239.67 0 239.67-25.35 243.62-25.35ZM243.47-35.15Q244.22-34.4 244.22-33.3 244.22-32.2 243.47-31.48 242.72-30.75 241.62-30.75 240.52-30.75 239.8-31.48 239.07-32.2 239.07-33.3 239.07-34.4 239.8-35.15 240.52-35.9 241.62-35.9 242.72-35.9 243.47-35.15ZM253.72-12.4L253.72-12.4Q253.72-8.3 255.72-5.75 257.72-3.2 260.77-3.2L260.77-3.2Q263.87-3.2 266.05-5.5 268.22-7.8 268.22-12.85L268.22-12.85Q268.22-17.65 265.97-19.9 263.72-22.15 261.02-22.15L261.02-22.15Q257.87-22.15 255.8-19.63 253.72-17.1 253.72-12.4ZM272.17-35.35L272.17 0 268.22 0 268.22-3.75Q265.52 0.4 260.42 0.4L260.42 0.4Q255.37 0.4 252.5-3.35 249.62-7.1 249.62-12.45L249.62-12.45Q249.62-18.4 252.67-22.08 255.72-25.75 260.52-25.75L260.52-25.75Q265.47-25.75 268.22-21.5L268.22-21.5 268.22-35.35 272.17-35.35ZM297.97-5L297.97-1.3Q295.02 0.25 290.77 0.25L290.77 0.25Q285.02 0.25 281.49-3.28 277.97-6.8 277.97-12.6L277.97-12.6Q277.97-18.65 281.12-22.15 284.27-25.65 289.22-25.65L289.22-25.65Q293.97-25.65 296.77-22.6 299.57-19.55 299.57-13.95L299.57-13.95Q299.57-12.35 299.32-11L299.32-11 282.02-11Q282.47-7.25 284.87-5.25 287.27-3.25 291.17-3.25L291.17-3.25Q295.42-3.25 297.97-5L297.97-5ZM289.22-22.2L289.22-22.2Q286.37-22.2 284.37-20.15 282.37-18.1 282.02-14.3L282.02-14.3 295.62-14.3 295.62-15.3Q295.62-18.45 293.92-20.33 292.22-22.2 289.22-22.2ZM320.82-6.75L320.82-6.75Q320.82-3.5 318.54-1.6 316.27 0.3 312.32 0.3L312.32 0.3Q307.72 0.3 304.87-1.25L304.87-1.25 304.87-5.1Q308.22-3.1 312.07-3.1L312.07-3.1Q314.37-3.1 315.57-4 316.77-4.9 316.77-6.45L316.77-6.45Q316.77-8.25 315.44-9.25 314.12-10.25 311.02-11.5L311.02-11.5Q308.17-12.6 306.44-14.25 304.72-15.9 304.72-18.7L304.72-18.7Q304.72-21.85 307.09-23.73 309.47-25.6 313.02-25.6L313.02-25.6Q316.97-25.6 319.37-24.5L319.37-24.5 319.37-20.75Q317.07-22.15 313.07-22.15L313.07-22.15Q311.07-22.15 309.89-21.23 308.72-20.3 308.72-18.85L308.72-18.85Q308.72-17.95 309.07-17.28 309.42-16.6 310.44-15.95 311.47-15.3 311.94-15.08 312.42-14.85 314.02-14.15L314.02-14.15Q317.22-12.85 319.02-11.2 320.82-9.55 320.82-6.75Z" opacity="1" transform="matrix(1,0,0,1,0,0)" fill="#50a060" class="slogan-text-1" data-fill-palette-color="secondary" id="text-1"></path></svg></g></svg></g></svg></g></svg></g><g transform="matrix(1,0,0,1,457.9526835542615,53.20966810379394)"><svg viewBox="0 0 244.43135999999998 90.17087096533412" height="90.17087096533412" width="244.43135999999998"><g><svg xmlns="http://www.w3.org/2000/svg" xmlns:xlink="http://www.w3.org/1999/xlink" version="1.1" x="0" y="0" viewBox="0.2962725501305952 33.94692138280563 99.40639946256867 36.67107861719437" enable-background="new 0 33.947 100 36.669" xml:space="preserve" width="244.43135999999998" height="90.17087096533412" class="icon-icon-0" data-fill-palette-color="accent" id="icon-0"><g fill="#50a060" data-fill-palette-color="accent"><path d="M15.524 55.357c-4.213 0-7.629 3.418-7.629 7.631s3.416 7.63 7.629 7.63c4.215 0 7.63-3.417 7.63-7.63S19.738 55.357 15.524 55.357zM15.524 66.189c-1.778 0-3.219-1.441-3.219-3.22s1.441-3.221 3.219-3.221c1.777 0 3.219 1.442 3.219 3.221C18.742 64.748 17.301 66.189 15.524 66.189z" fill="#50a060" data-fill-palette-color="accent"></path><path d="M82.53 55.355c-4.215 0-7.632 3.417-7.632 7.629 0 4.214 3.417 7.631 7.632 7.631 4.212 0 7.63-3.417 7.63-7.631C90.16 58.772 86.742 55.355 82.53 55.355zM82.53 66.189c-1.778 0-3.222-1.441-3.222-3.22s1.443-3.221 3.222-3.221 3.223 1.442 3.223 3.221S84.309 66.189 82.53 66.189z" fill="#50a060" data-fill-palette-color="accent"></path><path d="M78.23 44.515c0 0-18.764-8.75-24.754-10.018-5.987-1.268-26.597-0.115-28.554 1.151l-11.515 5.64L2.125 46.815 0.298 57.465c0 0-0.05 6.318 0.388 7.773h5.527l0.071-2.25c0-5.103 4.138-9.24 9.243-9.24 5.103 0 9.238 4.138 9.238 9.24l0.158 2.25h48.359l0.007-2.83c0-5.103 3.856-8.87 8.959-8.87s9.523 3.768 9.523 8.87l0.19 2.616c0 0 5.845 0.33 7.688-0.361 0 0 0.69-9.787-2.878-13.357C93.603 48.308 87.213 46.44 78.23 44.515zM25.956 45.896c0 0 2.363-5.01 4.943-6.924 1.911-1.627 12.446-1.583 12.446-1.583l0.389 9.715L25.956 45.896zM71.613 48.198l-24.698-0.978-0.577-9.846c9.154-0.344 19.576 4.549 25.563 8.06C77.89 48.946 71.613 48.198 71.613 48.198z" fill="#50a060" data-fill-palette-color="accent"></path></g></svg></g></svg></g></svg></g><defs></defs></svg><rect width="395.52" height="110.7020574493265" fill="none" stroke="none" visibility="hidden"></rect></g></svg></g></svg>