<?xml version="1.0" encoding="utf-8"?>
<!-- Generator: Adobe Illustrator 16.0.0, SVG Export Plug-In . SVG Version: 6.00 Build 0)  -->
<!DOCTYPE svg PUBLIC "-//W3C//DTD SVG 1.1//EN" "http://www.w3.org/Graphics/SVG/1.1/DTD/svg11.dtd">
<svg version="1.1" id="Layer_1" xmlns="http://www.w3.org/2000/svg" xmlns:xlink="http://www.w3.org/1999/xlink" x="0px" y="0px"
	 width="512px" height="512px" viewBox="0 0 512 512" enable-background="new 0 0 512 512" xml:space="preserve">
<path d="M416,448c0,55.688-100.25,64-160,64s-160-8.313-160-64c0-41.563,55.891-56.75,109.078-61.75l9.047,31.656
	C164.109,422.25,128,434,128,448c0,17.688,57.313,32,128,32c70.719,0,128-14.313,128-32c0-14-36.094-25.75-86.125-30.094
	l9.063-31.656C360.125,391.25,416,406.438,416,448z M314.438,243.438L256,448l-59.922-209.719C157.938,216.125,132,175.281,132,128
	C132,57.313,189.313,0,260,0s128,57.313,128,128C388,179.125,357.813,222.938,314.438,243.438z M320,128c0-35.344-28.656-64-64-64
	s-64,28.656-64,64s28.656,64,64,64S320,163.344,320,128z"/>
</svg>
